name C:\Users\u0101727\Documents\MyRepositories\upper-imu-dc\Results\main_tracking\Case_24\kinematics.mot
datacolumns 10
datarows 18
range 0.50000000 0.67000000
endheader 
time	clav_prot	clav_elev	scapula_abduction	scapula_elevation	scapula_upward_rot	scapula_winging	plane_elv	shoulder_elv	axial_rot	
          0.50000000	        -17.67521481	         -3.25160360	         -2.97999648	         -3.50629519	         14.93732991	          4.04228137	        -18.78890598	         15.06338675	         36.76246451	
          0.51000000	        -17.69843538	         -3.27801006	         -3.08634835	         -3.48436005	         14.93821013	          4.03105270	        -18.81710764	         15.02330326	         36.96509112	
          0.52000000	        -17.68656048	         -3.23681996	         -3.06294053	         -3.45783574	         14.95920290	          4.01181941	        -18.84507004	         15.00030262	         37.17569577	
          0.53000000	        -17.67637348	         -3.19725921	         -3.03816575	         -3.43433398	         14.98677945	          3.99169146	        -18.87731918	         14.99264488	         37.38945400	
          0.54000000	        -17.66588088	         -3.16276489	         -3.01136585	         -3.41477843	         15.01476613	          3.97284002	        -18.91340342	         14.99444007	         37.58421517	
          0.55000000	        -17.65478265	         -3.13548736	         -2.98409817	         -3.39966462	         15.03879780	          3.95692369	        -18.94960766	         15.00303977	         37.72712127	
          0.56000000	        -17.64403066	         -3.11698523	         -2.95955677	         -3.38940885	         15.05570519	          3.94536408	        -18.98002539	         15.01781808	         37.78660658	
          0.57000000	        -17.63523394	         -3.10812245	         -2.94149979	         -3.38426122	         15.06359744	          3.93918749	        -18.99864208	         15.03849192	         37.74335933	
          0.58000000	        -17.63007003	         -3.10893357	         -2.93319027	         -3.38419658	         15.06195104	          3.93885514	        -19.00122154	         15.06407109	         37.59549455	
          0.59000000	        -17.62989374	         -3.11866016	         -2.93670562	         -3.38891858	         15.05159373	          3.94420236	        -18.98652724	         15.09256527	         37.35734261	
          0.60000000	        -17.63538325	         -3.13592768	         -2.95249463	         -3.39788050	         15.03433032	          3.95451437	        -18.95623590	         15.12140569	         37.05415573	
          0.61000000	        -17.64641365	         -3.15901369	         -2.97936934	         -3.41036281	         15.01247600	          3.96869417	        -18.91403734	         15.14808919	         36.71606978	
          0.62000000	        -17.66211763	         -3.18612564	         -3.01480302	         -3.42557660	         14.98842618	          3.98546081	        -18.86439961	         15.17078448	         36.37311109	
          0.63000000	        -17.68107900	         -3.21561495	         -3.05539572	         -3.44276017	         14.96436300	          4.00352198	        -18.81140827	         15.18875492	         36.05176889	
          0.64000000	        -17.70156156	         -3.24606109	         -3.09732076	         -3.46122683	         14.94214984	          4.02166978	        -18.75799861	         15.20252281	         35.77325573	
          0.65000000	        -17.72168364	         -3.27619852	         -3.13661221	         -3.48033414	         14.92339473	          4.03877850	        -18.70570825	         15.21378245	         35.55323011	
          0.66000000	        -17.73946593	         -3.30471674	         -3.16922907	         -3.49936337	         14.90956465	          4.05372850	        -18.65482254	         15.22518212	         35.40229035	
          0.67000000	        -17.75270041	         -3.33000296	         -3.19090299	         -3.51731002	         14.90195824	          4.06531519	        -18.60456031	         15.24015894	         35.32643167	
